<svg width="209" height="129" viewBox="0 0 209 129" fill="none" xmlns="http://www.w3.org/2000/svg">
<g clip-path="url(#clip0_3_405)">
<path d="M160.015 127.541C157.34 125.207 155.714 121.52 156.14 117.93C156.567 114.34 159.207 111.04 162.631 110.278C166.056 109.516 169.959 111.626 170.999 115.079C171.572 108.421 172.231 101.484 175.66 95.8138C178.765 90.6797 184.142 87.006 189.97 86.3488C195.798 85.6916 201.934 88.1738 205.569 92.9228C209.204 97.6717 210.094 104.576 207.548 110.028C205.673 114.044 202.218 117.033 198.598 119.465C186.901 127.257 172.871 130.425 159.091 128.388L160.015 127.541Z" fill="#D9D8E1"/>
<path d="M199.806 88.3114C194.997 92.3551 190.586 96.8777 186.635 101.814C180.452 109.512 175.449 118.143 171.8 127.407C171.533 128.083 172.596 128.377 172.86 127.709C178.831 112.653 188.362 99.384 200.583 89.1138C201.132 88.6525 200.35 87.8539 199.806 88.3114Z" fill="white"/>
<path d="M67.2805 126.907C70.9556 123.701 73.188 118.636 72.6026 113.706C72.0171 108.775 68.3911 104.243 63.6877 103.196C58.9843 102.149 53.6227 105.047 52.1941 109.79C51.4079 100.645 50.5019 91.1172 45.7924 83.3293C41.528 76.2777 34.142 71.2319 26.1373 70.3292C18.1326 69.4265 9.70462 72.8358 4.71237 79.3585C-0.279891 85.8812 -1.50222 95.3638 1.99422 102.852C4.56993 108.369 9.3153 112.474 14.2873 115.814C30.1495 126.47 49.8267 130.914 68.5497 128.07" fill="#D9D8E1"/>
<path d="M12.6281 73.0248C19.233 78.5788 25.2923 84.7906 30.7183 91.5702C36.1452 98.3429 40.9231 105.643 44.9846 113.368C47.2549 117.701 49.2943 122.16 51.0938 126.723C51.4607 127.651 50.0007 128.055 49.6379 127.137C46.4506 119.092 42.5073 111.39 37.8645 104.14C33.2443 96.9156 27.9562 90.1713 22.0745 84.0015C18.7478 80.5135 15.2378 77.2171 11.5605 74.127C10.8068 73.4933 11.8806 72.3964 12.6281 73.0248Z" fill="white"/>
<path d="M150.024 128.718H62.3397V35.8376C62.3397 16.0766 77.9119 0 97.0528 0H115.31C134.451 0 150.024 16.0766 150.024 35.8376V128.718Z" fill="#D9D8E1"/>
<path d="M131.766 128.718H62.3397V35.8376C62.3205 28.2656 64.643 20.8851 68.969 14.7704C69.1284 14.546 69.2875 14.3246 69.4515 14.1055C71.544 11.2722 74.0341 8.77702 76.8396 6.70222C76.9981 6.58318 77.1572 6.4662 77.3187 6.34922C79.6662 4.67203 82.2057 3.30095 84.8792 2.26721C85.038 2.20508 85.1996 2.14284 85.3613 2.08313C87.7792 1.1923 90.2857 0.58208 92.8344 0.263746C92.9924 0.241463 93.1546 0.224025 93.3169 0.206588C95.8006 -0.0675808 98.3056 -0.0675808 100.789 0.206588C100.951 0.224025 101.113 0.241461 101.273 0.263985C103.821 0.582339 106.327 1.19248 108.744 2.08315C108.906 2.14285 109.068 2.20509 109.227 2.26734C111.868 3.28804 114.377 4.63865 116.7 6.28904C116.861 6.40348 117.023 6.52046 117.182 6.63744C118.754 7.79633 120.231 9.0874 121.598 10.4975C122.694 11.6285 123.715 12.8341 124.655 14.1062C124.818 14.3246 124.977 14.5461 125.136 14.7701C129.463 20.8848 131.785 28.2655 131.766 35.8376V128.718Z" fill="#01929A"/>
<path d="M126.121 87.1758C128.243 87.1758 129.964 85.3992 129.964 83.2076C129.964 81.0161 128.243 79.2395 126.121 79.2395C123.998 79.2395 122.277 81.0161 122.277 83.2076C122.277 85.3992 123.998 87.1758 126.121 87.1758Z" fill="#01929A"/>
<path d="M142.84 125.936H139.895L138.494 114.208L142.841 114.208L142.84 125.936Z" fill="#01929A"/>
<path d="M137.791 125.067H143.471V128.759H134.215C134.215 128.274 134.308 127.794 134.487 127.346C134.667 126.898 134.931 126.491 135.263 126.148C135.595 125.805 135.989 125.533 136.423 125.348C136.857 125.162 137.322 125.067 137.791 125.067Z" fill="#ECB834"/>
<path d="M157.494 125.936H154.549L153.148 114.208L157.495 114.208L157.494 125.936Z" fill="#01929A"/>
<path d="M152.445 125.067H158.125V128.759H148.869C148.869 128.274 148.962 127.794 149.141 127.346C149.321 126.898 149.585 126.491 149.917 126.148C150.249 125.805 150.643 125.533 151.077 125.348C151.511 125.162 151.976 125.067 152.445 125.067Z" fill="#ECB834"/>
<path d="M128.066 83.9937C127.854 83.6715 127.713 83.3051 127.653 82.9206C127.593 82.536 127.616 82.1426 127.719 81.768C127.823 81.3933 128.004 81.0467 128.251 80.7523C128.498 80.458 128.805 80.2232 129.15 80.0645L139.161 51.5763L144.088 54.3519L132.656 81.5762C132.876 82.1914 132.87 82.8686 132.639 83.4793C132.407 84.09 131.967 84.592 131.401 84.89C130.835 85.188 130.183 85.2613 129.569 85.0961C128.954 84.931 128.419 84.5387 128.066 83.9937Z" fill="#01929A"/>
<path d="M155.99 89.3468C155.663 89.1531 155.381 88.8876 155.163 88.5691C154.946 88.2506 154.799 87.8868 154.733 87.5034C154.667 87.1199 154.683 86.7261 154.78 86.3497C154.877 85.9734 155.053 85.6235 155.295 85.3249L152.193 55.1893L157.8 55.4537L159.089 85.0961C159.548 85.5494 159.83 86.1608 159.881 86.8145C159.933 87.4681 159.75 88.1185 159.368 88.6424C158.986 89.1664 158.431 89.5275 157.809 89.6573C157.186 89.7871 156.539 89.6766 155.99 89.3468Z" fill="#01929A"/>
<path d="M147.046 46.2995C150.305 46.2995 152.946 43.5723 152.946 40.2081C152.946 36.844 150.305 34.1167 147.046 34.1167C143.787 34.1167 141.146 36.844 141.146 40.2081C141.146 43.5723 143.787 46.2995 147.046 46.2995Z" fill="#01929A"/>
<path d="M155.952 82.493H138.164L138.185 82.3501C138.217 82.1365 141.356 60.9123 139.041 53.9688C138.809 53.2864 138.829 52.5395 139.098 51.8717C139.368 51.204 139.867 50.6627 140.499 50.3519C143.808 48.7435 150.158 46.7629 155.518 51.5694C156.307 52.2884 156.923 53.1869 157.317 54.194C157.712 55.201 157.874 56.289 157.791 57.3719L155.952 82.493Z" fill="#01929A"/>
<path d="M141.581 64.0489L133.572 62.3716L137.326 53.1878C137.551 52.2983 138.108 51.5371 138.875 51.0712C139.643 50.6052 140.558 50.4726 141.42 50.7024C142.282 50.9321 143.021 51.5056 143.474 52.2968C143.927 53.0881 144.058 54.0326 143.838 54.9233L141.581 64.0489Z" fill="#01929A"/>
<path d="M151.837 67.1633L151.356 55.7694C150.991 53.6275 152.178 51.6027 154.005 51.2718C155.832 50.942 157.616 52.4275 157.983 54.5851L159.792 65.2317L151.837 67.1633Z" fill="#01929A"/>
<path d="M155.361 81.129C158.223 92.3829 158.535 106.691 157.763 122.299L153.919 121.803L146.952 92.0414L143.109 122.299L138.785 122.051C137.493 105.675 136.235 91.616 138.304 82.369L155.361 81.129Z" fill="#ECB834"/>
<path d="M150.934 44.9158C149.833 46.1262 147.789 45.4764 147.645 43.8227C147.634 43.6943 147.635 43.5651 147.648 43.4369C147.722 42.7044 148.132 42.0393 148.034 41.2659C148.011 41.0734 147.942 40.89 147.832 40.733C146.955 39.5204 144.896 41.2753 144.068 40.1776C143.56 39.5045 144.157 38.4447 143.767 37.6924C143.253 36.6995 141.731 37.1893 140.776 36.6455C139.713 36.0405 139.777 34.3575 140.476 33.3339C141.329 32.0855 142.825 31.4194 144.301 31.3234C145.778 31.2274 147.245 31.6395 148.624 32.1942C150.19 32.8245 151.744 33.6956 152.708 35.1177C153.88 36.8471 153.993 39.1721 153.407 41.1944C153.05 42.4245 151.833 43.9273 150.934 44.9158Z" fill="#ECB834"/>
<path d="M201.789 128.877H24.4284C24.3527 128.877 24.2801 128.846 24.2267 128.79C24.1732 128.735 24.1432 128.66 24.1432 128.582C24.1432 128.504 24.1732 128.429 24.2267 128.373C24.2801 128.318 24.3527 128.287 24.4284 128.287H201.789C201.864 128.287 201.937 128.318 201.99 128.373C202.044 128.429 202.074 128.504 202.074 128.582C202.074 128.66 202.044 128.735 201.99 128.79C201.937 128.846 201.864 128.877 201.789 128.877Z" fill="#1D1947"/>
<path d="M112.668 101.808H81.4379C81.0266 101.811 80.6313 101.645 80.3385 101.346C80.0458 101.048 79.8796 100.642 79.8764 100.217V28.2522C79.8796 27.8276 80.0458 27.4216 80.3385 27.1234C80.6313 26.8251 81.0266 26.6589 81.4379 26.6612H112.668C113.079 26.6589 113.474 26.8251 113.767 27.1234C114.06 27.4216 114.226 27.8276 114.229 28.2522V100.217C114.226 100.642 114.06 101.048 113.767 101.346C113.474 101.645 113.079 101.811 112.668 101.808Z" fill="white"/>
<path d="M114.229 49.9468H79.8764V50.4428H114.229V49.9468Z" fill="#01929A"/>
<path d="M114.349 78.2474H79.9966V78.7434H114.349V78.2474Z" fill="#01929A"/>
<path d="M91.1672 26.6612H90.6868V102.056H91.1672V26.6612Z" fill="#01929A"/>
<path d="M103.179 26.6612H102.698V102.056H103.179V26.6612Z" fill="#01929A"/>
</g>
<defs>
<clipPath id="clip0_3_405">
<rect width="209" height="129" fill="white"/>
</clipPath>
</defs>
</svg>
