<svg width="239" height="141" viewBox="0 0 239 141" fill="none" xmlns="http://www.w3.org/2000/svg">
<g clip-path="url(#clip0_6_548)">
<path d="M12.4696 140.685C12.4536 140.616 10.9073 133.697 14.0653 127.95C17.2232 122.204 23.9642 119.67 24.0319 119.645L24.34 119.531L24.4128 119.846C24.4287 119.915 25.975 126.834 22.8171 132.581C19.6593 138.327 12.9182 140.862 12.8505 140.887L12.5423 141L12.4696 140.685ZM23.9175 120.3C22.5672 120.87 17.2381 123.364 14.5709 128.218C11.9035 133.072 12.7083 138.812 12.9649 140.231C14.3146 139.663 19.6416 137.172 22.3114 132.314C24.9787 127.46 24.1742 121.72 23.9175 120.3Z" fill="#1E9EA5"/>
<path d="M20.4038 130.565C14.7288 133.915 12.5432 140.57 12.5432 140.57C12.5432 140.57 19.5585 141.793 25.2336 138.442C30.9086 135.092 33.0942 128.438 33.0942 128.438C33.0942 128.438 26.0788 127.215 20.4038 130.565Z" fill="#1E9EA5"/>
<path d="M106.345 76.8586C106.431 76.4203 106.419 75.9687 106.308 75.5356C106.198 75.1025 105.991 74.6985 105.705 74.352C105.418 74.0055 105.057 73.725 104.647 73.5301C104.238 73.3353 103.79 73.2309 103.335 73.2243L100.707 66.7394L96.3013 67.3453L100.144 76.4521C100.183 77.2028 100.502 77.9133 101.039 78.4488C101.577 78.9844 102.296 79.3079 103.06 79.358C103.824 79.4081 104.581 79.1814 105.186 78.7207C105.792 78.2601 106.204 77.5975 106.345 76.8586Z" fill="#9F616A"/>
<path d="M98.2278 74.58L96.8627 71.3858L88.3558 55.4966L88.8183 26.0959L88.9071 26.0843C94.3505 25.3786 98.0334 49.9889 98.1876 51.037L103.562 69.0744L104.842 73.0502L98.2278 74.58Z" fill="#ECB834"/>
<path d="M85.1566 136.576L89.2927 136.576L91.2602 120.922L85.1557 120.922L85.1566 136.576Z" fill="#9F616A"/>
<path d="M84.1014 135.251L92.247 135.251H92.2473C93.624 135.251 94.9443 135.788 95.9177 136.743C96.8912 137.698 97.4382 138.993 97.4383 140.344V140.51L84.1017 140.51L84.1014 135.251Z" fill="#01929A"/>
<path d="M47.1262 130.393L50.5199 132.713L61.2556 120.974L56.247 117.549L47.1262 130.393Z" fill="#9F616A"/>
<path d="M47.0328 128.714L53.7158 133.283L53.7161 133.283C54.8455 134.056 55.616 135.237 55.8581 136.567C56.1002 137.897 55.7941 139.266 55.007 140.375L54.9106 140.51L43.9686 133.029L47.0328 128.714Z" fill="#01929A"/>
<path d="M82.8833 132.897L82.7046 103.53L80.1021 85.0651L75.2501 101.304L75.2407 101.317L57.6576 126.365L50.8158 122.963L50.8533 122.876C51.2714 121.9 61.1238 98.981 63.772 98.981C64.0032 98.9969 64.235 98.9574 64.4472 98.8659C64.6595 98.7744 64.8458 98.6336 64.9903 98.4557C65.7676 97.4373 65.1346 95.2762 65.1281 95.2545C64.37 92.17 66.2761 91.1195 66.6558 90.9441L67.6769 70.2609L67.7827 70.2681L95.4647 72.1733L94.3034 98.0329L91.8052 131.914L91.7193 131.924L82.8833 132.897Z" fill="#01929A"/>
<path d="M95.8877 76.7564L95.768 76.7469L65.9967 74.3921L66.0702 64.7264L67.5273 39.489L67.5356 39.4714L73.4697 26.8303L77.6762 24.9613L83.8135 24.6444L83.8285 24.648L89.4295 26.0097L95.2559 67.0505L95.8877 76.7564Z" fill="#ECB834"/>
<path d="M84.7752 21.4047C88.5737 19.3672 89.9698 14.6939 87.8933 10.9666C85.8168 7.23938 81.0542 5.86956 77.2556 7.90707C73.4571 9.94458 72.0611 14.6179 74.1375 18.3451C76.214 22.0724 80.9767 23.4422 84.7752 21.4047Z" fill="#9F616A"/>
<path d="M73.1324 16.5866V13.5898C73.1324 13.5898 70.6694 10.7436 73.3787 10.0266C73.3787 10.0266 74.1175 2.85682 80.5211 6.20271C80.5211 6.20271 89.3876 4.76876 88.4024 9.7876C88.4024 9.7876 90.619 8.47734 89.8802 11.8232L88.4512 17.2129C88.4512 17.2129 89.1413 13.6526 86.9247 13.1746L85.6932 12.4577C85.6932 12.4577 82.2451 15.8036 77.073 11.7407C77.073 11.7407 74.8564 11.2216 75.1027 13.3725C75.349 15.5234 73.1324 16.5866 73.1324 16.5866Z" fill="#01929A"/>
<path d="M80.1993 69.5384C80.2042 69.0919 80.1094 68.6498 79.9214 68.2433C79.7334 67.8367 79.4568 67.4755 79.1111 67.1852C78.7655 66.8948 78.3592 66.6824 77.9208 66.5628C77.4824 66.4432 77.0227 66.4194 76.5739 66.493L72.8025 60.5761L68.5791 61.948L74.0246 70.2303C74.2006 70.9619 74.644 71.6047 75.2707 72.037C75.8975 72.4692 76.6641 72.6608 77.4252 72.5755C78.1863 72.4902 78.8891 72.134 79.4004 71.5742C79.9117 71.0144 80.1959 70.29 80.1993 69.5384Z" fill="#9F616A"/>
<path d="M70.4586 67.6732L63.6357 54.0808L63.6418 54.0477C63.6693 53.8972 66.4157 38.9338 68.5163 33.4337C70.6301 27.8987 73.5236 26.7874 73.6457 26.7428L73.7067 26.7205L76.3012 29.1624L72.7073 52.7002L76.5812 64.0522L70.4586 67.6732Z" fill="#ECB834"/>
<path d="M239 0H225.789V12.9628H239V0Z" fill="#1E9EA5"/>
<path d="M135.612 50.4421H122.401V63.4048H135.612V50.4421Z" fill="#1E9EA5"/>
<path d="M129.816 57.7245H234.26V5.8428H129.816V57.7245Z" fill="white"/>
<path d="M235.121 58.5699H128.955V4.99738H235.121V58.5699ZM130.678 56.8791H233.398V6.68817H130.678V56.8791Z" fill="#E5E5E5"/>
<path d="M222.71 24.0419H142.353V26.6568H222.71V24.0419Z" fill="#E5E5E5"/>
<path d="M222.71 30.3833H142.353V32.9981H222.71V30.3833Z" fill="#E5E5E5"/>
<path d="M222.71 39.7465H207.776V42.0157H222.71V39.7465Z" fill="#ECB834"/>
<path d="M109.706 140.989H0.287189C0.211021 140.989 0.137974 140.959 0.0841153 140.906C0.0302571 140.853 0 140.782 0 140.707C0 140.632 0.0302571 140.56 0.0841153 140.508C0.137974 140.455 0.211021 140.425 0.287189 140.425H109.706C109.782 140.425 109.855 140.455 109.909 140.508C109.963 140.56 109.993 140.632 109.993 140.707C109.993 140.782 109.963 140.853 109.909 140.906C109.855 140.959 109.782 140.989 109.706 140.989Z" fill="#CBCBCB"/>
</g>
<defs>
<clipPath id="clip0_6_548">
<rect width="239" height="141" fill="white"/>
</clipPath>
</defs>
</svg>
