<svg width="262" height="228" viewBox="0 0 262 228" fill="none" xmlns="http://www.w3.org/2000/svg">
<path d="M238.488 208.14C233.466 214.1 227.711 219.247 221.393 223.427C221.248 223.526 221.101 223.619 220.953 223.714L210.725 213.681C210.833 213.57 210.952 213.446 211.08 213.309C218.701 205.289 256.534 149.208 259.055 135.552C258.881 136.69 261.33 181.306 238.488 208.14Z" fill="#F0F0F0"/>
<path d="M223.367 225.363C223.173 225.414 222.977 225.462 222.779 225.506L215.106 217.978C215.256 217.92 215.431 217.851 215.632 217.775C218.924 216.483 228.73 212.582 238.488 208.139C248.973 203.363 259.408 197.967 261.652 194.511C261.171 195.314 246.342 219.669 223.367 225.363Z" fill="#F0F0F0"/>
<path d="M238.347 59.7125H237.254V26.5324C237.254 24.0106 236.806 21.5134 235.935 19.1835C235.064 16.8536 233.788 14.7366 232.179 12.9533C230.57 11.1701 228.66 9.75555 226.558 8.79047C224.456 7.82539 222.203 7.32867 219.928 7.32867H156.506C154.231 7.32867 151.978 7.82538 149.876 8.79045C147.774 9.75553 145.864 11.1701 144.255 12.9533C142.646 14.7365 141.37 16.8535 140.5 19.1834C139.629 21.5133 139.181 24.0105 139.181 26.5324V208.561C139.181 211.083 139.629 213.58 140.499 215.91C141.37 218.24 142.646 220.357 144.255 222.14C145.864 223.923 147.774 225.338 149.876 226.303C151.978 227.268 154.231 227.765 156.506 227.765H219.928C222.203 227.765 224.456 227.268 226.558 226.303C228.66 225.338 230.57 223.923 232.179 222.14C233.788 220.357 235.064 218.24 235.935 215.91C236.806 213.58 237.254 211.083 237.254 208.561V83.3307H238.347V59.7125Z" fill="#3F3D56"/>
<path d="M233.566 26.6644V208.428C233.566 210.311 233.231 212.176 232.581 213.916C231.93 215.656 230.977 217.237 229.775 218.569C228.574 219.9 227.147 220.956 225.577 221.676C224.007 222.397 222.324 222.767 220.625 222.766H156.898C155.199 222.766 153.517 222.396 151.948 221.675C150.378 220.955 148.952 219.899 147.751 218.567C146.549 217.236 145.597 215.655 144.946 213.915C144.296 212.176 143.962 210.311 143.962 208.428V26.6644C143.962 24.7814 144.296 22.9169 144.946 21.1772C145.597 19.4375 146.549 17.8569 147.751 16.5254C148.952 15.194 150.378 14.1378 151.948 13.4173C153.517 12.6968 155.199 12.326 156.898 12.3262H164.632C164.252 13.3608 164.108 14.4829 164.211 15.5939C164.315 16.7049 164.663 17.7707 165.225 18.6976C165.787 19.6244 166.546 20.384 167.435 20.9094C168.325 21.4348 169.317 21.71 170.324 21.7107H206.657C207.665 21.7118 208.658 21.4378 209.548 20.9128C210.439 20.3879 211.198 19.6283 211.761 18.7009C212.324 17.7735 212.672 16.7069 212.774 15.5951C212.877 14.4834 212.731 13.3607 212.35 12.3262H220.625C222.324 12.3255 224.007 12.6959 225.577 13.4161C227.147 14.1364 228.574 15.1924 229.775 16.5239C230.977 17.8554 231.93 19.4363 232.581 21.1762C233.231 22.9161 233.566 24.781 233.566 26.6644Z" fill="#01929A"/>
<path d="M213.743 121.119H157.728C156.747 121.117 155.807 120.685 155.113 119.916C154.419 119.147 154.029 118.104 154.028 117.017V114.975C154.029 113.888 154.419 112.845 155.113 112.076C155.807 111.307 156.747 110.875 157.728 110.874H213.743C214.724 110.875 215.664 111.307 216.358 112.076C217.052 112.845 217.442 113.888 217.443 114.975V117.017C217.442 118.104 217.052 119.147 216.358 119.916C215.664 120.685 214.724 121.117 213.743 121.119Z" fill="#F0F0F0"/>
<path d="M213.743 138.718H157.728C156.747 138.717 155.807 138.284 155.113 137.515C154.419 136.746 154.029 135.704 154.028 134.616V132.574C154.029 131.487 154.419 130.444 155.113 129.675C155.807 128.907 156.747 128.474 157.728 128.473H213.743C214.724 128.474 215.664 128.907 216.358 129.675C217.052 130.444 217.442 131.487 217.443 132.574V134.616C217.442 135.704 217.052 136.746 216.358 137.515C215.664 138.284 214.724 138.717 213.743 138.718Z" fill="#F0F0F0"/>
<path d="M216.545 117.182H160.53C159.5 117.181 158.513 116.727 157.784 115.92C157.056 115.112 156.646 114.018 156.645 112.876V110.834C156.646 109.692 157.056 108.598 157.784 107.79C158.513 106.983 159.5 106.529 160.53 106.527H216.545C217.575 106.529 218.562 106.983 219.291 107.79C220.019 108.598 220.429 109.692 220.43 110.834V112.876C220.429 114.018 220.019 115.112 219.291 115.92C218.562 116.727 217.575 117.181 216.545 117.182ZM160.53 107.348C159.696 107.349 158.897 107.716 158.307 108.37C157.718 109.024 157.386 109.91 157.385 110.834V112.876C157.386 113.8 157.718 114.686 158.307 115.34C158.897 115.993 159.696 116.361 160.53 116.362H216.545C217.379 116.361 218.178 115.993 218.768 115.34C219.357 114.686 219.689 113.8 219.69 112.876V110.834C219.689 109.91 219.357 109.024 218.768 108.37C218.178 107.716 217.379 107.349 216.545 107.348H160.53Z" fill="#3F3D56"/>
<path d="M216.545 134.782H160.53C159.5 134.78 158.513 134.326 157.784 133.519C157.056 132.711 156.646 131.617 156.645 130.475V128.433C156.646 127.291 157.056 126.197 157.784 125.389C158.513 124.582 159.5 124.128 160.53 124.127H216.545C217.575 124.128 218.562 124.582 219.291 125.389C220.019 126.197 220.429 127.291 220.43 128.433V130.475C220.429 131.617 220.019 132.711 219.291 133.519C218.562 134.326 217.575 134.78 216.545 134.782ZM160.53 124.947C159.696 124.948 158.897 125.316 158.307 125.969C157.718 126.623 157.386 127.509 157.385 128.433V130.475C157.386 131.399 157.718 132.285 158.307 132.939C158.897 133.593 159.696 133.96 160.53 133.961H216.545C217.379 133.96 218.178 133.593 218.768 132.939C219.357 132.285 219.689 131.399 219.69 130.475V128.433C219.689 127.509 219.357 126.623 218.768 125.969C218.178 125.316 217.379 124.948 216.545 124.947H160.53Z" fill="#3F3D56"/>
<path d="M233.566 26.6644V66.2005C227.898 67.8533 221.964 68.0429 216.22 66.7548C210.475 65.4667 205.074 62.7352 200.432 58.7705C195.789 54.8058 192.029 49.7135 189.441 43.8854C186.853 38.0573 185.505 31.6488 185.502 25.1529C185.502 23.9934 185.544 22.846 185.628 21.7107H206.657C207.665 21.7118 208.658 21.4378 209.549 20.9128C210.439 20.3879 211.199 19.6283 211.761 18.7009C212.324 17.7735 212.672 16.7069 212.774 15.5951C212.877 14.4834 212.731 13.3607 212.35 12.3262H220.625C222.324 12.3255 224.007 12.6959 225.577 13.4161C227.147 14.1364 228.574 15.1924 229.775 16.5239C230.977 17.8554 231.93 19.4363 232.581 21.1762C233.231 22.9161 233.566 24.781 233.566 26.6644Z" fill="#F0F0F0"/>
<path d="M176.162 220.297C176.162 221.131 176.134 221.954 176.073 222.766H156.898C155.199 222.766 153.517 222.396 151.948 221.675C150.378 220.955 148.952 219.899 147.751 218.567C146.549 217.236 145.597 215.655 144.946 213.915C144.296 212.176 143.962 210.311 143.962 208.428V188.986C147.981 188.407 152.066 188.784 155.944 190.091C159.821 191.399 163.403 193.608 166.45 196.571C169.497 199.534 171.939 203.182 173.614 207.274C175.288 211.365 176.157 215.805 176.162 220.297Z" fill="#ECB834"/>
<path d="M21.5081 186.184C22.0469 186.446 22.6577 186.461 23.2065 186.226C23.7554 185.99 24.1974 185.522 24.4356 184.926L41.7096 141.532C42.105 140.539 42.2258 139.439 42.0568 138.369C41.8877 137.3 41.4364 136.311 40.76 135.526C40.0835 134.741 39.2123 134.196 38.2564 133.96C37.3006 133.724 36.3031 133.808 35.39 134.2C34.3352 134.647 33.4524 135.484 32.8921 136.571C32.8029 136.743 32.7221 136.92 32.6499 137.101L15.3759 180.495C15.2582 180.791 15.1941 181.109 15.1875 181.432C15.1808 181.755 15.2316 182.077 15.337 182.378C15.4424 182.679 15.6004 182.955 15.8018 183.188C16.0032 183.422 16.2442 183.609 16.511 183.74L21.5081 186.184Z" fill="#ECB834"/>
<path d="M41.0005 159.347L23.9143 155.139L28.1433 142.738C28.8637 139.708 30.5404 137.063 32.869 135.285C35.1977 133.507 38.0242 132.713 40.8359 133.047L41.0005 133.067L41.0005 159.347Z" fill="#01929A"/>
<path d="M75.5119 186.804C75.0094 186.803 74.5178 186.641 74.0967 186.337C73.6756 186.033 73.343 185.6 73.1391 185.091L55.8652 141.698C55.3159 140.317 55.2648 138.756 55.7225 137.334C56.1802 135.913 57.1119 134.741 58.326 134.058C59.54 133.375 60.9439 133.234 62.249 133.663C63.5541 134.093 64.6611 135.06 65.3421 136.367C65.4379 136.551 65.5247 136.741 65.6022 136.936L82.8761 180.329C83.1534 181.026 83.1697 181.816 82.9213 182.526C82.673 183.236 82.1804 183.808 81.5518 184.115L76.3853 186.642L76.3827 186.635C76.1034 186.747 75.8088 186.804 75.5119 186.804Z" fill="#ECB834"/>
<path d="M51.6176 171.903C51.0289 171.904 50.4645 172.164 50.0483 172.625C49.632 173.086 49.3979 173.712 49.3972 174.364V224.821C49.3979 225.473 49.632 226.099 50.0483 226.56C50.4645 227.022 51.0289 227.281 51.6176 227.282H57.0794C57.6681 227.281 58.2325 227.022 58.6487 226.56C59.065 226.099 59.2991 225.473 59.2998 224.821V174.364C59.2991 173.712 59.065 173.086 58.6487 172.625C58.2325 172.164 57.6681 171.904 57.0794 171.903H51.6176Z" fill="#ECB834"/>
<path d="M40.8147 171.903C40.226 171.904 39.6617 172.164 39.2454 172.625C38.8292 173.086 38.595 173.712 38.5944 174.364V224.821C38.595 225.473 38.8292 226.099 39.2454 226.56C39.6617 227.022 40.226 227.281 40.8147 227.282H46.2766C46.8653 227.281 47.4297 227.022 47.8459 226.56C48.2622 226.099 48.4963 225.473 48.497 224.821V174.364C48.4963 173.712 48.2622 173.086 47.8459 172.625C47.4297 172.164 46.8653 171.904 46.2766 171.903H40.8147Z" fill="#ECB834"/>
<path d="M48.7839 119.041C59.2071 119.041 67.6568 109.676 67.6568 98.1224C67.6568 86.5694 59.2071 77.2038 48.7839 77.2038C38.3607 77.2038 29.911 86.5694 29.911 98.1224C29.911 109.676 38.3607 119.041 48.7839 119.041Z" fill="#ECB834"/>
<path d="M55.0644 106.904C56.2878 106.866 57.8103 106.819 58.9833 105.869C59.3326 105.575 59.6196 105.199 59.8241 104.769C60.0287 104.339 60.1459 103.864 60.1675 103.378C60.1887 103.033 60.1376 102.687 60.0182 102.368C59.8988 102.048 59.7143 101.763 59.4791 101.535C58.8664 100.962 57.9718 100.827 57.0078 101.141L58.0066 93.0503L57.2734 92.9389L56.0991 102.451L56.7114 102.139C57.4213 101.778 58.3958 101.595 59.0013 102.162C59.15 102.31 59.2659 102.495 59.3399 102.701C59.4138 102.907 59.444 103.129 59.4279 103.35C59.4099 103.711 59.322 104.064 59.1699 104.385C59.0178 104.705 58.8053 104.986 58.5467 105.207C57.6339 105.946 56.4203 106.041 55.0438 106.084L55.0644 106.904Z" fill="#01929A"/>
<path d="M65.6189 93.7481H61.6328V94.5684H65.6189V93.7481Z" fill="#01929A"/>
<path d="M53.037 93.7481H49.0509V94.5684H53.037V93.7481Z" fill="#01929A"/>
<path d="M67.4842 187.059L60.6914 132.096C60.6186 131.507 60.3556 130.967 59.9512 130.576C59.5467 130.185 59.0282 129.969 58.4915 129.969H53.3642C53.3856 129.834 53.3967 129.697 53.3975 129.559V127.508C53.3974 126.856 53.1635 126.23 52.7471 125.768C52.3307 125.307 51.766 125.047 51.1771 125.047H46.7364C46.1476 125.047 45.5828 125.307 45.1664 125.768C44.75 126.23 44.5161 126.856 44.5161 127.508V129.559C44.5169 129.697 44.528 129.834 44.5493 129.969H39.422C38.8854 129.969 38.3668 130.185 37.9624 130.576C37.558 130.967 37.295 131.507 37.2221 132.096L30.4294 187.059C30.3863 187.407 30.4111 187.762 30.5019 188.098C30.5927 188.435 30.7476 188.746 30.956 189.011C31.1644 189.276 31.4215 189.488 31.7101 189.634C31.9987 189.779 32.3121 189.854 32.6291 189.854H65.2844C65.6014 189.854 65.9148 189.779 66.2034 189.634C66.492 189.488 66.7492 189.276 66.9576 189.011C67.166 188.746 67.3208 188.435 67.4116 188.098C67.5025 187.762 67.5272 187.407 67.4842 187.059Z" fill="#01929A"/>
<path d="M56.913 159.347V133.067L57.0776 133.047C59.8927 132.713 62.7223 133.51 65.0525 135.292C67.3827 137.075 69.0587 139.724 69.7762 142.76L73.9991 155.139L56.913 159.347Z" fill="#01929A"/>
<path d="M47.8334 119.694L34.7795 114.078C32.6449 113.16 30.4984 112.269 28.3751 111.319C27.4656 110.968 26.6278 110.421 25.91 109.709C25.285 108.976 24.8591 108.062 24.681 107.073C24.2282 104.952 24.3101 102.633 24.3424 100.468C24.3674 98.0999 24.5433 95.7369 24.8685 93.3963C25.4386 88.998 26.7773 84.7653 28.8097 80.9352C32.4706 74.2775 38.778 69.2685 46.0332 69.6682C49.3921 69.8533 52.7703 71.1892 55.2659 73.7347C55.5262 74.0795 55.8183 74.3932 56.1374 74.6709C56.3592 74.7631 56.6006 74.781 56.8315 74.7225C57.136 74.7008 57.4408 74.6842 57.7459 74.6728C58.8043 74.6233 59.8646 74.6726 60.9156 74.8201C62.8309 75.0495 64.6461 75.8849 66.1446 77.2268C67.3918 78.4159 68.4065 80.0945 68.5109 81.9601C68.5614 82.8164 68.4336 83.6742 68.1375 84.4672C67.8415 85.2602 67.385 85.9672 66.8034 86.5337C65.246 87.9885 63.024 87.4772 61.1558 87.3675L54.3121 86.9656L50.8446 86.762C50.1306 86.72 50.1327 87.9507 50.8446 87.9925L60.0608 88.5337C61.5419 88.6206 63.0683 88.8338 64.5505 88.7354C65.6894 88.6782 66.7769 88.1933 67.6343 87.3603C68.4173 86.5631 69.0005 85.5545 69.3271 84.4331C69.6538 83.3116 69.7127 82.1154 69.4981 80.9612C69.0229 78.4438 67.3326 76.3613 65.351 75.1224C62.6547 73.4367 59.4345 73.2752 56.4176 73.5244L56.8101 73.7046C53.3973 69.6446 48.1698 67.9305 43.2622 68.5304C38.0806 69.1637 33.4719 72.3678 30.1607 76.7491C26.4688 81.634 24.457 87.7251 23.6749 93.9885C23.2679 97.3702 23.1339 100.785 23.2745 104.193C23.2687 105.696 23.5007 107.189 23.9599 108.603C24.4839 109.98 25.4313 111.105 26.6336 111.78C28.0121 112.518 29.4292 113.163 30.8774 113.713L35.6867 115.782L45.1336 119.846L47.5383 120.88C48.2047 121.167 48.4934 119.978 47.8334 119.694Z" fill="#01929A"/>
<path d="M27.3084 77.8779C26.1739 77.8779 25.065 77.505 24.1217 76.8064C23.1784 76.1078 22.4433 75.1149 22.0091 73.9532C21.575 72.7915 21.4614 71.5132 21.6827 70.2799C21.904 69.0467 22.4503 67.9138 23.2525 67.0247C24.0547 66.1356 25.0767 65.5301 26.1894 65.2848C27.302 65.0394 28.4553 65.1654 29.5034 65.6465C30.5515 66.1277 31.4473 66.9426 32.0776 67.9881C32.7079 69.0336 33.0443 70.2628 33.0443 71.5202C33.0426 73.2058 32.4377 74.8218 31.3624 76.0137C30.2871 77.2055 28.8291 77.876 27.3084 77.8779ZM27.3084 66.3931C26.3935 66.3931 25.4992 66.6938 24.7385 67.2572C23.9778 67.8206 23.3849 68.6213 23.0348 69.5582C22.6847 70.495 22.5931 71.5259 22.7716 72.5205C22.95 73.515 23.3906 74.4286 24.0375 75.1457C24.6844 75.8627 25.5087 76.351 26.406 76.5488C27.3033 76.7467 28.2333 76.6451 29.0786 76.2571C29.9238 75.869 30.6462 75.2119 31.1545 74.3687C31.6628 73.5256 31.9341 72.5343 31.9341 71.5202C31.9327 70.1609 31.4449 68.8577 30.5777 67.8965C29.7105 66.9353 28.5348 66.3946 27.3084 66.3931Z" fill="#01929A"/>
<path d="M123.192 117.277L110.777 106.752L101.281 120.513L113.696 131.038L123.192 117.277Z" fill="#F0F0F0"/>
<path d="M53.0273 23.3253C54.9889 23.3236 56.9236 23.831 58.6765 24.807C60.4293 25.7829 61.9516 27.2003 63.1215 28.9455L70.3708 18.4395L48.6194 0L31.9833 24.1094L41.3581 32.0568C42.2963 29.4778 43.9085 27.2686 45.9878 25.7127C48.0671 24.1569 50.5186 23.3255 53.0273 23.3253Z" fill="#F0F0F0"/>
<path d="M197.865 159.94H171.271C170.29 159.939 169.35 159.506 168.656 158.738C167.962 157.969 167.572 156.926 167.571 155.839V153.797C167.572 152.709 167.962 151.667 168.656 150.898C169.35 150.129 170.29 149.696 171.271 149.695H197.865C198.846 149.696 199.786 150.129 200.48 150.898C201.174 151.667 201.564 152.709 201.565 153.797V155.839C201.564 156.926 201.174 157.969 200.48 158.738C199.786 159.506 198.846 159.939 197.865 159.94Z" fill="#ECB834"/>
<path d="M200.667 156.004H174.073C173.043 156.003 172.056 155.549 171.327 154.742C170.599 153.934 170.189 152.839 170.188 151.698V149.656C170.189 148.514 170.599 147.419 171.327 146.612C172.056 145.805 173.043 145.351 174.073 145.349H200.667C201.697 145.351 202.684 145.805 203.413 146.612C204.141 147.419 204.551 148.514 204.552 149.656V151.698C204.551 152.839 204.141 153.934 203.413 154.742C202.684 155.549 201.697 156.003 200.667 156.004ZM174.073 146.17C173.24 146.171 172.44 146.538 171.85 147.192C171.261 147.845 170.929 148.732 170.928 149.656V151.698C170.929 152.622 171.261 153.508 171.85 154.162C172.44 154.815 173.24 155.183 174.073 155.184H200.667C201.501 155.183 202.3 154.815 202.89 154.162C203.479 153.508 203.811 152.622 203.812 151.698V149.656C203.811 148.732 203.479 147.845 202.89 147.192C202.3 146.538 201.501 146.171 200.667 146.17H174.073Z" fill="#3F3D56"/>
</svg>
